<?xml version="1.0" encoding="UTF-8" standalone="no"?>
<!-- Created with Inkscape (http://www.inkscape.org/) -->

<svg
   xmlns:dc="http://purl.org/dc/elements/1.1/"
   xmlns:cc="http://creativecommons.org/ns#"
   xmlns:rdf="http://www.w3.org/1999/02/22-rdf-syntax-ns#"
   xmlns:svg="http://www.w3.org/2000/svg"
   xmlns="http://www.w3.org/2000/svg"
   xmlns:sodipodi="http://sodipodi.sourceforge.net/DTD/sodipodi-0.dtd"
   xmlns:inkscape="http://www.inkscape.org/namespaces/inkscape"
   width="40.922573mm"
   height="96.168503mm"
   viewBox="0 0 145.00125 340.75452"
   id="svg5201"
   version="1.1"
   inkscape:version="0.91 r13725"
   sodipodi:docname="plant3_xlarge.svg">
  <defs
     id="defs5203">
    <clipPath
       clipPathUnits="userSpaceOnUse"
       id="clipPath184">
      <path
         d="m 845.979,559.029 30,0 0,-10.526 -30,0 0,10.526 z"
         id="path186"
         inkscape:connector-curvature="0" />
    </clipPath>
    <clipPath
       clipPathUnits="userSpaceOnUse"
       id="clipPath164">
      <path
         d="m 883.993,559.029 30,0 0,-10.526 -30,0 0,10.526 z"
         id="path166"
         inkscape:connector-curvature="0" />
    </clipPath>
    <clipPath
       clipPathUnits="userSpaceOnUse"
       id="clipPath286">
      <path
         d="m 1024.98,566.04 40,0 0,-14.035 -40,0 0,14.035 z"
         id="path288"
         inkscape:connector-curvature="0" />
    </clipPath>
    <clipPath
       clipPathUnits="userSpaceOnUse"
       id="clipPath266">
      <path
         d="m 1072.99,566.04 40,0 0,-14.035 -40,0 0,14.035 z"
         id="path268"
         inkscape:connector-curvature="0" />
    </clipPath>
    <clipPath
       clipPathUnits="userSpaceOnUse"
       id="clipPath246">
      <path
         d="m 1034.98,597.556 30,0 0,-10.526 -30,0 0,10.526 z"
         id="path248"
         inkscape:connector-curvature="0" />
    </clipPath>
    <clipPath
       clipPathUnits="userSpaceOnUse"
       id="clipPath226">
      <path
         d="m 1072.99,597.556 30,0 0,-10.526 -30,0 0,10.526 z"
         id="path228"
         inkscape:connector-curvature="0" />
    </clipPath>
    <clipPath
       clipPathUnits="userSpaceOnUse"
       id="clipPath428">
      <path
         d="m 1214.18,555.495 40,0 0,-14.035 -40,0 0,14.035 z"
         id="path430"
         inkscape:connector-curvature="0" />
    </clipPath>
    <clipPath
       clipPathUnits="userSpaceOnUse"
       id="clipPath408">
      <path
         d="m 1262.19,555.495 40,0 0,-14.035 -40,0 0,14.035 z"
         id="path410"
         inkscape:connector-curvature="0" />
    </clipPath>
    <clipPath
       clipPathUnits="userSpaceOnUse"
       id="clipPath388">
      <path
         d="m 1214.18,596.04 40,0 0,-14.035 -40,0 0,14.035 z"
         id="path390"
         inkscape:connector-curvature="0" />
    </clipPath>
    <clipPath
       clipPathUnits="userSpaceOnUse"
       id="clipPath368">
      <path
         d="m 1262.19,596.04 40,0 0,-14.035 -40,0 0,14.035 z"
         id="path370"
         inkscape:connector-curvature="0" />
    </clipPath>
    <clipPath
       clipPathUnits="userSpaceOnUse"
       id="clipPath348">
      <path
         d="m 1224.18,627.556 30,0 0,-10.526 -30,0 0,10.526 z"
         id="path350"
         inkscape:connector-curvature="0" />
    </clipPath>
    <clipPath
       clipPathUnits="userSpaceOnUse"
       id="clipPath328">
      <path
         d="m 1262.19,627.556 30,0 0,-10.526 -30,0 0,10.526 z"
         id="path330"
         inkscape:connector-curvature="0" />
    </clipPath>
  </defs>
  <sodipodi:namedview
     id="base"
     pagecolor="#ffffff"
     bordercolor="#666666"
     borderopacity="1.0"
     inkscape:pageopacity="0.0"
     inkscape:pageshadow="2"
     inkscape:zoom="0.35"
     inkscape:cx="-731.55188"
     inkscape:cy="707.28677"
     inkscape:document-units="px"
     inkscape:current-layer="layer1"
     showgrid="false"
     fit-margin-top="0"
     fit-margin-left="0"
     fit-margin-right="0"
     fit-margin-bottom="0"
     inkscape:window-width="1440"
     inkscape:window-height="897"
     inkscape:window-x="-8"
     inkscape:window-y="-8"
     inkscape:window-maximized="1" />
  <metadata
     id="metadata5206">
    <rdf:RDF>
      <cc:Work
         rdf:about="">
        <dc:format>image/svg+xml</dc:format>
        <dc:type
           rdf:resource="http://purl.org/dc/dcmitype/StillImage" />
        <dc:title></dc:title>
      </cc:Work>
    </rdf:RDF>
  </metadata>
  <g
     inkscape:label="Taso 1"
     inkscape:groupmode="layer"
     id="layer1"
     transform="translate(-605.12328,-898.89445)">
    <g
       id="g478"
       transform="matrix(1.2500001,0,0,-1.2500001,672.85928,1079.3541)">
      <path
         d="m 0,0 c 0,-4.466 -3.822,-8.086 -10.734,-8.086 -8.859,0 -15.517,4.746 -15.516,4.746 0,0 6.525,11.425 16.407,11.425 C -2.931,8.085 0,4.464 0,0"
         style="fill:#8cc63f;fill-opacity:1;fill-rule:nonzero;stroke:none"
         id="path480"
         inkscape:connector-curvature="0" />
    </g>
    <g
       id="g482"
       transform="matrix(1.2500001,0,0,-1.2500001,607.23307,1079.3541)">
      <path
         d="m 0,0 c 0,-4.466 3.822,-8.086 10.734,-8.086 8.859,0 15.517,4.746 15.516,4.746 0,0 -6.526,11.425 -16.408,11.425 C 2.93,8.085 0,4.464 0,0"
         style="fill:#8cc63f;fill-opacity:1;fill-rule:nonzero;stroke:none"
         id="path484"
         inkscape:connector-curvature="0" />
    </g>
    <g
       id="g486"
       transform="matrix(1.2500001,0,0,-1.2500001,672.85928,1051.5824)">
      <path
         d="m 0,0 c 0,-4.466 -3.822,-8.086 -10.734,-8.086 -8.859,0 -15.517,4.746 -15.516,4.746 0,0 6.525,11.425 16.407,11.425 C -2.931,8.085 0,4.465 0,0"
         style="fill:#8cc63f;fill-opacity:1;fill-rule:nonzero;stroke:none"
         id="path488"
         inkscape:connector-curvature="0" />
    </g>
    <g
       id="g490"
       transform="matrix(1.2500001,0,0,-1.2500001,607.23307,1051.5824)">
      <path
         d="m 0,0 c 0,-4.466 3.822,-8.086 10.734,-8.086 8.859,0 15.517,4.746 15.516,4.746 0,0 -6.526,11.425 -16.408,11.425 C 2.93,8.085 0,4.465 0,0"
         style="fill:#8cc63f;fill-opacity:1;fill-rule:nonzero;stroke:none"
         id="path492"
         inkscape:connector-curvature="0" />
    </g>
    <g
       id="g494"
       transform="matrix(1.2500001,0,0,-1.2500001,672.85928,1023.8102)">
      <path
         d="m 0,0 c 0,-4.466 -3.822,-8.086 -10.734,-8.086 -8.859,0 -15.517,4.746 -15.516,4.746 0,0 6.525,11.425 16.407,11.425 C -2.931,8.085 0,4.464 0,0"
         style="fill:#8cc63f;fill-opacity:1;fill-rule:nonzero;stroke:none"
         id="path496"
         inkscape:connector-curvature="0" />
    </g>
    <g
       id="g498"
       transform="matrix(1.2500001,0,0,-1.2500001,607.23307,1023.8102)">
      <path
         d="m 0,0 c 0,-4.466 3.822,-8.086 10.734,-8.086 8.859,0 15.517,4.746 15.516,4.746 0,0 -6.526,11.425 -16.408,11.425 C 2.93,8.085 0,4.464 0,0"
         style="fill:#8cc63f;fill-opacity:1;fill-rule:nonzero;stroke:none"
         id="path500"
         inkscape:connector-curvature="0" />
    </g>
    <g
       id="g502"
       transform="matrix(1.2500001,0,0,-1.2500001,672.85928,996.03855)">
      <path
         d="m 0,0 c 0,-4.465 -3.822,-8.086 -10.734,-8.086 -8.859,0 -15.517,4.746 -15.516,4.746 0,0 6.525,11.425 16.407,11.425 C -2.931,8.085 0,4.465 0,0"
         style="fill:#8cc63f;fill-opacity:1;fill-rule:nonzero;stroke:none"
         id="path504"
         inkscape:connector-curvature="0" />
    </g>
    <g
       id="g506"
       transform="matrix(1.2500001,0,0,-1.2500001,607.23307,996.03855)">
      <path
         d="m 0,0 c 0,-4.465 3.822,-8.086 10.734,-8.086 8.859,0 15.517,4.746 15.516,4.746 0,0 -6.526,11.425 -16.408,11.425 C 2.93,8.085 0,4.465 0,0"
         style="fill:#8cc63f;fill-opacity:1;fill-rule:nonzero;stroke:none"
         id="path508"
         inkscape:connector-curvature="0" />
    </g>
    <g
       id="g510"
       transform="matrix(1.2500001,0,0,-1.2500001,672.85928,968.26643)">
      <path
         d="m 0,0 c 0,-4.466 -3.822,-8.086 -10.734,-8.086 -8.859,0 -15.517,4.746 -15.516,4.746 0,0 6.525,11.425 16.407,11.425 C -2.931,8.085 0,4.464 0,0"
         style="fill:#8cc63f;fill-opacity:1;fill-rule:nonzero;stroke:none"
         id="path512"
         inkscape:connector-curvature="0" />
    </g>
    <g
       id="g514"
       transform="matrix(1.2500001,0,0,-1.2500001,607.23307,968.26643)">
      <path
         d="m 0,0 c 0,-4.466 3.822,-8.086 10.734,-8.086 8.859,0 15.517,4.746 15.516,4.746 0,0 -6.526,11.425 -16.408,11.425 C 2.93,8.085 0,4.464 0,0"
         style="fill:#8cc63f;fill-opacity:1;fill-rule:nonzero;stroke:none"
         id="path516"
         inkscape:connector-curvature="0" />
    </g>
    <g
       id="g518"
       transform="matrix(1.2500001,0,0,-1.2500001,672.85928,940.4948)">
      <path
         d="m 0,0 c 0,-4.465 -3.822,-8.086 -10.734,-8.086 -8.859,0 -15.517,4.746 -15.516,4.746 0,0 6.525,11.425 16.407,11.425 C -2.931,8.085 0,4.465 0,0"
         style="fill:#8cc63f;fill-opacity:1;fill-rule:nonzero;stroke:none"
         id="path520"
         inkscape:connector-curvature="0" />
    </g>
    <g
       id="g522"
       transform="matrix(1.2500001,0,0,-1.2500001,607.23307,940.4948)">
      <path
         d="m 0,0 c 0,-4.465 3.822,-8.086 10.734,-8.086 8.859,0 15.517,4.746 15.516,4.746 0,0 -6.526,11.425 -16.408,11.425 C 2.93,8.085 0,4.465 0,0"
         style="fill:#8cc63f;fill-opacity:1;fill-rule:nonzero;stroke:none"
         id="path524"
         inkscape:connector-curvature="0" />
    </g>
    <g
       id="g526"
       transform="matrix(1.2500001,0,0,-1.2500001,640.04617,1146.8761)">
      <path
         d="M 0,0 0,175.025"
         style="fill:none;stroke:#73a533;stroke-width:1.11300004;stroke-linecap:butt;stroke-linejoin:miter;stroke-miterlimit:10;stroke-dasharray:none;stroke-opacity:1"
         id="path528"
         inkscape:connector-curvature="0" />
    </g>
    <g
       id="g530"
       transform="matrix(1.2500001,0,0,-1.2500001,640.04617,898.89442)">
      <path
         d="M 0,0 C 5.256,0 8.771,-3.902 8.269,-10.469 7.749,-17.258 0,-23.853 0,-23.853 c 0,0 -7.75,6.595 -8.27,13.384 C -8.771,-3.902 -5.256,0 0,0"
         style="fill:#8cc63f;fill-opacity:1;fill-rule:nonzero;stroke:none"
         id="path532"
         inkscape:connector-curvature="0" />
    </g>
    <g
       id="g534"
       transform="matrix(1.2500001,0,0,-1.2500001,748.01559,1079.3541)">
      <path
         d="m 0,0 c 0,-4.466 -3.822,-8.086 -10.734,-8.086 -8.858,0 -15.517,4.746 -15.516,4.746 0,0 6.526,11.425 16.408,11.425 C -2.93,8.085 0,4.464 0,0"
         style="fill:#8cc63f;fill-opacity:1;fill-rule:nonzero;stroke:none"
         id="path536"
         inkscape:connector-curvature="0" />
    </g>
    <g
       id="g538"
       transform="matrix(1.2500001,0,0,-1.2500001,682.38988,1079.3541)">
      <path
         d="m 0,0 c 0,-4.466 3.822,-8.086 10.734,-8.086 8.858,0 15.517,4.746 15.516,4.746 0,0 -6.526,11.425 -16.408,11.425 C 2.93,8.085 0,4.464 0,0"
         style="fill:#8cc63f;fill-opacity:1;fill-rule:nonzero;stroke:none"
         id="path540"
         inkscape:connector-curvature="0" />
    </g>
    <g
       id="g542"
       transform="matrix(1.2500001,0,0,-1.2500001,748.01559,1051.5824)">
      <path
         d="m 0,0 c 0,-4.466 -3.822,-8.086 -10.734,-8.086 -8.858,0 -15.517,4.746 -15.516,4.746 0,0 6.526,11.425 16.408,11.425 C -2.93,8.085 0,4.465 0,0"
         style="fill:#8cc63f;fill-opacity:1;fill-rule:nonzero;stroke:none"
         id="path544"
         inkscape:connector-curvature="0" />
    </g>
    <g
       id="g546"
       transform="matrix(1.2500001,0,0,-1.2500001,682.38988,1051.5824)">
      <path
         d="m 0,0 c 0,-4.466 3.822,-8.086 10.734,-8.086 8.858,0 15.517,4.746 15.516,4.746 0,0 -6.526,11.425 -16.408,11.425 C 2.93,8.085 0,4.465 0,0"
         style="fill:#8cc63f;fill-opacity:1;fill-rule:nonzero;stroke:none"
         id="path548"
         inkscape:connector-curvature="0" />
    </g>
    <g
       id="g550"
       transform="matrix(1.2500001,0,0,-1.2500001,748.01559,1023.8102)">
      <path
         d="m 0,0 c 0,-4.466 -3.822,-8.086 -10.734,-8.086 -8.858,0 -15.517,4.746 -15.516,4.746 0,0 6.526,11.425 16.408,11.425 C -2.93,8.085 0,4.464 0,0"
         style="fill:#8cc63f;fill-opacity:1;fill-rule:nonzero;stroke:none"
         id="path552"
         inkscape:connector-curvature="0" />
    </g>
    <g
       id="g554"
       transform="matrix(1.2500001,0,0,-1.2500001,682.38988,1023.8102)">
      <path
         d="m 0,0 c 0,-4.466 3.822,-8.086 10.734,-8.086 8.858,0 15.517,4.746 15.516,4.746 0,0 -6.526,11.425 -16.408,11.425 C 2.93,8.085 0,4.464 0,0"
         style="fill:#8cc63f;fill-opacity:1;fill-rule:nonzero;stroke:none"
         id="path556"
         inkscape:connector-curvature="0" />
    </g>
    <g
       id="g558"
       transform="matrix(1.2500001,0,0,-1.2500001,748.01559,996.03855)">
      <path
         d="m 0,0 c 0,-4.465 -3.822,-8.086 -10.734,-8.086 -8.858,0 -15.517,4.746 -15.516,4.746 0,0 6.526,11.425 16.408,11.425 C -2.93,8.085 0,4.465 0,0"
         style="fill:#8cc63f;fill-opacity:1;fill-rule:nonzero;stroke:none"
         id="path560"
         inkscape:connector-curvature="0" />
    </g>
    <g
       id="g562"
       transform="matrix(1.2500001,0,0,-1.2500001,682.38988,996.03855)">
      <path
         d="m 0,0 c 0,-4.465 3.822,-8.086 10.734,-8.086 8.858,0 15.517,4.746 15.516,4.746 0,0 -6.526,11.425 -16.408,11.425 C 2.93,8.085 0,4.465 0,0"
         style="fill:#8cc63f;fill-opacity:1;fill-rule:nonzero;stroke:none"
         id="path564"
         inkscape:connector-curvature="0" />
    </g>
    <g
       id="g566"
       transform="matrix(1.2500001,0,0,-1.2500001,748.01559,968.26643)">
      <path
         d="m 0,0 c 0,-4.466 -3.822,-8.086 -10.734,-8.086 -8.858,0 -15.517,4.746 -15.516,4.746 0,0 6.526,11.425 16.408,11.425 C -2.93,8.085 0,4.464 0,0"
         style="fill:#8cc63f;fill-opacity:1;fill-rule:nonzero;stroke:none"
         id="path568"
         inkscape:connector-curvature="0" />
    </g>
    <g
       id="g570"
       transform="matrix(1.2500001,0,0,-1.2500001,682.38988,968.26643)">
      <path
         d="m 0,0 c 0,-4.466 3.822,-8.086 10.734,-8.086 8.858,0 15.517,4.746 15.516,4.746 0,0 -6.526,11.425 -16.408,11.425 C 2.93,8.085 0,4.464 0,0"
         style="fill:#8cc63f;fill-opacity:1;fill-rule:nonzero;stroke:none"
         id="path572"
         inkscape:connector-curvature="0" />
    </g>
    <g
       id="g574"
       transform="matrix(1.2500001,0,0,-1.2500001,748.01559,940.4948)">
      <path
         d="m 0,0 c 0,-4.465 -3.822,-8.086 -10.734,-8.086 -8.858,0 -15.517,4.746 -15.516,4.746 0,0 6.526,11.425 16.408,11.425 C -2.93,8.085 0,4.465 0,0"
         style="fill:#8cc63f;fill-opacity:1;fill-rule:nonzero;stroke:none"
         id="path576"
         inkscape:connector-curvature="0" />
    </g>
    <g
       id="g578"
       transform="matrix(1.2500001,0,0,-1.2500001,682.38988,940.4948)">
      <path
         d="m 0,0 c 0,-4.465 3.822,-8.086 10.734,-8.086 8.858,0 15.517,4.746 15.516,4.746 0,0 -6.526,11.425 -16.408,11.425 C 2.93,8.085 0,4.465 0,0"
         style="fill:#8cc63f;fill-opacity:1;fill-rule:nonzero;stroke:none"
         id="path580"
         inkscape:connector-curvature="0" />
    </g>
    <g
       id="g582"
       transform="matrix(1.2500001,0,0,-1.2500001,715.20238,1146.8761)">
      <path
         d="M 0,0 0,175.025"
         style="fill:none;stroke:#73a533;stroke-width:1.11300004;stroke-linecap:butt;stroke-linejoin:miter;stroke-miterlimit:10;stroke-dasharray:none;stroke-opacity:1"
         id="path584"
         inkscape:connector-curvature="0" />
    </g>
    <g
       id="g586"
       transform="matrix(1.2500001,0,0,-1.2500001,715.20238,898.89442)">
      <path
         d="M 0,0 C 5.256,0 8.771,-3.902 8.27,-10.469 7.75,-17.258 0,-23.853 0,-23.853 c 0,0 -7.749,6.595 -8.269,13.384 C -8.771,-3.902 -5.256,0 0,0"
         style="fill:#8cc63f;fill-opacity:1;fill-rule:nonzero;stroke:none"
         id="path588"
         inkscape:connector-curvature="0" />
    </g>
    <g
       id="g590"
       transform="matrix(1.2500001,0,0,-1.2500001,710.89708,1112.0609)">
      <path
         d="m 0,0 c -2.176,0 -4.249,-0.433 -6.149,-1.204 -3.44,8.218 -11.555,13.993 -21.021,13.993 -8.393,0 -15.708,-4.554 -19.66,-11.312 -0.881,0.119 -1.774,0.202 -2.688,0.202 -10.993,0 -19.905,-8.912 -19.905,-19.907 0,-10.992 8.912,-19.904 19.905,-19.904 5.897,0 11.179,2.58 14.825,6.655 2.358,-0.827 4.883,-1.299 7.523,-1.299 5.698,0 10.894,2.106 14.889,5.563 3.003,-3.404 7.385,-5.563 12.281,-5.563 9.05,0 16.387,7.338 16.387,16.388 C 16.387,-7.337 9.05,0 0,0"
         style="fill:#5d3824;fill-opacity:1;fill-rule:nonzero;stroke:none"
         id="path592"
         inkscape:connector-curvature="0" />
    </g>
    <g
       id="g594"
       transform="matrix(1.2500001,0,0,-1.2500001,714.41508,1139.9358)">
      <path
         d="m 0,0 c 0,-11.041 -8.949,-19.989 -19.989,-19.989 -11.039,0 -19.988,8.948 -19.988,19.989 0,11.039 8.949,19.988 19.988,19.988 C -8.949,19.988 0,11.039 0,0"
         style="fill:#5d3824;fill-opacity:1;fill-rule:nonzero;stroke:none"
         id="path596"
         inkscape:connector-curvature="0" />
    </g>
    <g
       id="g598"
       transform="matrix(1.2500001,0,0,-1.2500001,741.91939,1141.5465)">
      <path
         d="m 0,0 -102.871,0 c -1.483,0 -2.547,-1.203 -2.365,-2.676 l 9.012,-73.13 c 0.182,-1.472 1.543,-2.676 3.025,-2.676 l 83.527,0 c 1.482,0 2.842,1.204 3.025,2.676 l 9.012,73.13 C 2.546,-1.203 1.482,0 0,0"
         style="fill:#f4e3d7;fill-opacity:1;fill-rule:nonzero;stroke:none"
         id="path600"
         inkscape:connector-curvature="0" />
    </g>
    <g
       id="g602"
       transform="matrix(1.2500001,0,0,-1.2500001,746.75579,1118.3971)">
      <path
         d="m 0,0 -110.609,0 c -1.483,0 -2.697,-1.212 -2.697,-2.695 l 0,-17.392 c 0,-1.483 1.214,-2.696 2.697,-2.696 l 110.609,0 c 1.482,0 2.695,1.213 2.695,2.696 l 0,17.392 C 2.695,-1.212 1.482,0 0,0"
         style="fill:#e9c6af;fill-opacity:1;fill-rule:nonzero;stroke:none"
         id="path604"
         inkscape:connector-curvature="0" />
    </g>
  </g>
</svg>
