<?xml version="1.0" encoding="UTF-8" standalone="no"?>
<!-- Created with Inkscape (http://www.inkscape.org/) -->

<svg
   xmlns:dc="http://purl.org/dc/elements/1.1/"
   xmlns:cc="http://creativecommons.org/ns#"
   xmlns:rdf="http://www.w3.org/1999/02/22-rdf-syntax-ns#"
   xmlns:svg="http://www.w3.org/2000/svg"
   xmlns="http://www.w3.org/2000/svg"
   xmlns:sodipodi="http://sodipodi.sourceforge.net/DTD/sodipodi-0.dtd"
   xmlns:inkscape="http://www.inkscape.org/namespaces/inkscape"
   width="43.075546mm"
   height="71.413582mm"
   viewBox="0 0 152.62989 253.04024"
   id="svg5201"
   version="1.1"
   inkscape:version="0.91 r13725"
   sodipodi:docname="plant1_large_serious.svg">
  <defs
     id="defs5203" />
  <sodipodi:namedview
     id="base"
     pagecolor="#ffffff"
     bordercolor="#666666"
     borderopacity="1.0"
     inkscape:pageopacity="0.0"
     inkscape:pageshadow="2"
     inkscape:zoom="3.959798"
     inkscape:cx="68.326429"
     inkscape:cy="61.558921"
     inkscape:document-units="px"
     inkscape:current-layer="layer1"
     showgrid="false"
     fit-margin-top="0"
     fit-margin-left="0"
     fit-margin-right="0"
     fit-margin-bottom="0"
     inkscape:window-width="1440"
     inkscape:window-height="897"
     inkscape:window-x="-8"
     inkscape:window-y="-8"
     inkscape:window-maximized="1" />
  <metadata
     id="metadata5206">
    <rdf:RDF>
      <cc:Work
         rdf:about="">
        <dc:format>image/svg+xml</dc:format>
        <dc:type
           rdf:resource="http://purl.org/dc/dcmitype/StillImage" />
        <dc:title></dc:title>
      </cc:Work>
    </rdf:RDF>
  </metadata>
  <g
     inkscape:label="Taso 1"
     inkscape:groupmode="layer"
     id="layer1"
     transform="translate(-574.45897,-81.080317)">
    <g
       id="g70"
       transform="matrix(1.2500001,0,0,-1.2500001,622.54367,159.70819)">
      <path
         d="M 0,0 C -0.645,17.324 4.245,41.365 10.894,54.807 22.151,43.549 30.668,20.727 30.668,0 L 0,0 Z"
         style="fill:#b3d334;fill-opacity:1;fill-rule:nonzero;stroke:none"
         id="path72"
         inkscape:connector-curvature="0" />
    </g>
    <g
       id="g74"
       transform="matrix(1.2500001,0,0,-1.2500001,634.73607,211.41782)">
      <path
         d="M 0,0 -46.667,81.808 C -18.839,88.223 12.397,61.334 12.397,0 L 0,0 Z"
         style="fill:#7fb539;fill-opacity:1;fill-rule:nonzero;stroke:none"
         id="path76"
         inkscape:connector-curvature="0" />
    </g>
    <g
       id="g78"
       transform="matrix(1.2500001,0,0,-1.2500001,727.08888,81.080302)">
      <path
         d="m 0,0 -55.242,-107.822 -18.169,0 C -81.932,-51.825 -59,-6 0,0"
         style="fill:#8cc63f;fill-opacity:1;fill-rule:nonzero;stroke:none"
         id="path80"
         inkscape:connector-curvature="0" />
    </g>
    <g
       id="g82"
       transform="matrix(1.2500001,0,0,-1.2500001,680.23277,206.53256)">
      <path
         d="m 0,0 c -2.176,0 -4.249,-0.433 -6.149,-1.204 -3.44,8.218 -11.555,13.993 -21.021,13.993 -8.393,0 -15.708,-4.554 -19.66,-11.312 -0.881,0.119 -1.774,0.202 -2.688,0.202 -10.993,0 -19.905,-8.912 -19.905,-19.907 0,-10.992 8.912,-19.904 19.905,-19.904 5.897,0 11.179,2.58 14.825,6.655 2.358,-0.827 4.883,-1.299 7.523,-1.299 5.698,0 10.894,2.106 14.889,5.563 3.003,-3.404 7.385,-5.563 12.281,-5.563 9.05,0 16.387,7.338 16.387,16.388 C 16.387,-7.337 9.05,0 0,0"
         style="fill:#5d3824;fill-opacity:1;fill-rule:nonzero;stroke:none"
         id="path84"
         inkscape:connector-curvature="0" />
    </g>
    <g
       id="g86"
       transform="matrix(1.2500001,0,0,-1.2500001,683.75087,234.40731)">
      <path
         d="m 0,0 c 0,-11.041 -8.949,-19.989 -19.989,-19.989 -11.039,0 -19.988,8.948 -19.988,19.989 0,11.039 8.949,19.988 19.988,19.988 C -8.949,19.988 0,11.039 0,0"
         style="fill:#5d3824;fill-opacity:1;fill-rule:nonzero;stroke:none"
         id="path88"
         inkscape:connector-curvature="0" />
    </g>
    <g
       id="g90"
       transform="matrix(1.2500001,0,0,-1.2500001,711.25518,236.01807)">
      <path
         d="m 0,0 -102.871,0 c -1.483,0 -2.547,-1.203 -2.365,-2.676 l 9.012,-73.13 c 0.182,-1.472 1.543,-2.676 3.025,-2.676 l 83.527,0 c 1.482,0 2.842,1.204 3.025,2.676 l 9.012,73.13 C 2.546,-1.203 1.482,0 0,0"
         style="fill:#f4e3d7;fill-opacity:1;fill-rule:nonzero;stroke:none"
         id="path92"
         inkscape:connector-curvature="0" />
    </g>
    <g
       id="g94"
       transform="matrix(1.2500001,0,0,-1.2500001,716.09148,212.86856)">
      <path
         d="m 0,0 -110.609,0 c -1.483,0 -2.697,-1.212 -2.697,-2.695 l 0,-17.392 c 0,-1.483 1.214,-2.696 2.697,-2.696 l 110.609,0 c 1.482,0 2.695,1.213 2.695,2.696 l 0,17.392 C 2.695,-1.212 1.482,0 0,0"
         style="fill:#e9c6af;fill-opacity:1;fill-rule:nonzero;stroke:none"
         id="path96"
         inkscape:connector-curvature="0" />
    </g>
    <g
       id="g62"
       transform="matrix(1.25,0,0,-1.25,711.48543,235.78238)">
      <path
         d="m 0,0 -102.871,0 c -1.483,0 -2.547,-1.203 -2.365,-2.676 l 9.012,-73.13 c 0.182,-1.472 1.543,-2.676 3.025,-2.676 l 83.527,0 c 1.482,0 2.842,1.204 3.025,2.676 l 9.012,73.13 C 2.546,-1.203 1.482,0 0,0"
         style="fill:#f4e3d7;fill-opacity:1;fill-rule:nonzero;stroke:none"
         id="path64"
         inkscape:connector-curvature="0" />
    </g>
    <g
       id="g66"
       transform="matrix(1.25,0,0,-1.25,716.32183,212.63287)">
      <path
         d="m 0,0 -110.609,0 c -1.483,0 -2.697,-1.212 -2.697,-2.695 l 0,-17.392 c 0,-1.483 1.214,-2.696 2.697,-2.696 l 110.609,0 c 1.482,0 2.695,1.213 2.695,2.696 l 0,17.392 C 2.695,-1.212 1.482,0 0,0"
         style="fill:#e9c6af;fill-opacity:1;fill-rule:nonzero;stroke:none"
         id="path68"
         inkscape:connector-curvature="0" />
    </g>
    <text
       xml:space="preserve"
       style="font-style:normal;font-weight:normal;font-size:40px;line-height:125%;font-family:sans-serif;letter-spacing:0px;word-spacing:0px;fill:#000000;fill-opacity:1;stroke:none;stroke-width:1px;stroke-linecap:butt;stroke-linejoin:miter;stroke-opacity:1"
       x="612.63702"
       y="270.72031"
       id="text7089-0"
       sodipodi:linespacing="125%"><tspan
         sodipodi:role="line"
         id="tspan7091-0"
         x="612.63702"
         y="270.72031"
         style="font-size:70px">. .</tspan></text>
    <text
       xml:space="preserve"
       style="font-style:normal;font-weight:normal;font-size:40px;line-height:125%;font-family:sans-serif;letter-spacing:0px;word-spacing:0px;fill:#000000;fill-opacity:1;stroke:none;stroke-width:1px;stroke-linecap:butt;stroke-linejoin:miter;stroke-opacity:1"
       x="294.59473"
       y="-640.38599"
       id="text7093-1"
       sodipodi:linespacing="125%"
       transform="matrix(0,1,-1,0,0,0)"><tspan
         sodipodi:role="line"
         id="tspan7095-9"
         x="294.59473"
         y="-640.38599">|</tspan></text>
  </g>
</svg>
