<?xml version="1.0" encoding="UTF-8" standalone="no"?>
<!-- Created with Inkscape (http://www.inkscape.org/) -->

<svg
   xmlns:dc="http://purl.org/dc/elements/1.1/"
   xmlns:cc="http://creativecommons.org/ns#"
   xmlns:rdf="http://www.w3.org/1999/02/22-rdf-syntax-ns#"
   xmlns:svg="http://www.w3.org/2000/svg"
   xmlns="http://www.w3.org/2000/svg"
   xmlns:sodipodi="http://sodipodi.sourceforge.net/DTD/sodipodi-0.dtd"
   xmlns:inkscape="http://www.inkscape.org/namespaces/inkscape"
   width="40.922577mm"
   height="48.958076mm"
   viewBox="0 0 145.00126 173.47349"
   id="svg5201"
   version="1.1"
   inkscape:version="0.91 r13725"
   sodipodi:docname="plant2_small.svg">
  <defs
     id="defs5203" />
  <sodipodi:namedview
     id="base"
     pagecolor="#ffffff"
     bordercolor="#666666"
     borderopacity="1.0"
     inkscape:pageopacity="0.0"
     inkscape:pageshadow="2"
     inkscape:zoom="0.35"
     inkscape:cx="-1121.9134"
     inkscape:cy="-233.82371"
     inkscape:document-units="px"
     inkscape:current-layer="layer1"
     showgrid="false"
     fit-margin-top="0"
     fit-margin-left="0"
     fit-margin-right="0"
     fit-margin-bottom="0"
     inkscape:window-width="1440"
     inkscape:window-height="897"
     inkscape:window-x="-8"
     inkscape:window-y="-8"
     inkscape:window-maximized="1" />
  <metadata
     id="metadata5206">
    <rdf:RDF>
      <cc:Work
         rdf:about="">
        <dc:format>image/svg+xml</dc:format>
        <dc:type
           rdf:resource="http://purl.org/dc/dcmitype/StillImage" />
        <dc:title></dc:title>
      </cc:Work>
    </rdf:RDF>
  </metadata>
  <g
     inkscape:label="Taso 1"
     inkscape:groupmode="layer"
     id="layer1"
     transform="translate(-995.48489,-125.06497)">
    <path
       d="m 1073.1201,193.35697 -10.0175,0 0,-58.00125 10.0175,0 0,58.00125 z"
       style="fill:#8cc63f;fill-opacity:1;fill-rule:nonzero;stroke:none"
       id="path456"
       inkscape:connector-curvature="0" />
    <g
       id="g458"
       transform="matrix(1.2500001,0,0,-1.25,1070.6201,125.06497)">
      <path
         d="m 0,0 -4.014,0 -2,-8.232 8.014,0 L 0,0 Z"
         style="fill:#a6ce38;fill-opacity:1;fill-rule:nonzero;stroke:none"
         id="path460"
         inkscape:connector-curvature="0" />
    </g>
    <g
       id="g462"
       transform="matrix(1.2500001,0,0,-1.25,1101.2592,170.9506)">
      <path
         d="m 0,0 c -2.177,0 -4.249,-0.433 -6.149,-1.204 -3.441,8.218 -11.555,13.993 -21.021,13.993 -8.393,0 -15.709,-4.554 -19.66,-11.312 -0.882,0.119 -1.774,0.202 -2.688,0.202 -10.994,0 -19.905,-8.912 -19.905,-19.907 0,-10.992 8.911,-19.904 19.905,-19.904 5.897,0 11.179,2.58 14.825,6.655 2.357,-0.827 4.882,-1.299 7.523,-1.299 5.697,0 10.894,2.106 14.889,5.563 3.003,-3.404 7.385,-5.563 12.281,-5.563 9.05,0 16.387,7.338 16.387,16.388 C 16.387,-7.337 9.05,0 0,0"
         style="fill:#5d3824;fill-opacity:1;fill-rule:nonzero;stroke:none"
         id="path464"
         inkscape:connector-curvature="0" />
    </g>
    <g
       id="g466"
       transform="matrix(1.2500001,0,0,-1.25,1104.7772,198.82534)">
      <path
         d="m 0,0 c 0,-11.041 -8.949,-19.989 -19.989,-19.989 -11.039,0 -19.988,8.948 -19.988,19.989 0,11.039 8.949,19.988 19.988,19.988 C -8.949,19.988 0,11.039 0,0"
         style="fill:#5d3824;fill-opacity:1;fill-rule:nonzero;stroke:none"
         id="path468"
         inkscape:connector-curvature="0" />
    </g>
    <g
       id="g470"
       transform="matrix(1.2500001,0,0,-1.25,1132.2809,200.43597)">
      <path
         d="m 0,0 -102.871,0 c -1.483,0 -2.547,-1.203 -2.365,-2.676 l 9.012,-73.13 c 0.183,-1.472 1.543,-2.676 3.026,-2.676 l 83.526,0 c 1.482,0 2.843,1.204 3.025,2.676 l 9.012,73.13 C 2.547,-1.203 1.482,0 0,0"
         style="fill:#f4e3d7;fill-opacity:1;fill-rule:nonzero;stroke:none"
         id="path472"
         inkscape:connector-curvature="0" />
    </g>
    <g
       id="g474"
       transform="matrix(1.2500001,0,0,-1.25,1137.1174,177.2866)">
      <path
         d="m 0,0 -110.609,0 c -1.483,0 -2.697,-1.212 -2.697,-2.695 l 0,-17.392 c 0,-1.483 1.214,-2.696 2.697,-2.696 l 110.609,0 c 1.482,0 2.695,1.213 2.695,2.696 l 0,17.392 C 2.695,-1.212 1.482,0 0,0"
         style="fill:#e9c6af;fill-opacity:1;fill-rule:nonzero;stroke:none"
         id="path476"
         inkscape:connector-curvature="0" />
    </g>
  </g>
</svg>
