<?xml version="1.0" encoding="UTF-8" standalone="no"?>
<!-- Created with Inkscape (http://www.inkscape.org/) -->

<svg
   xmlns:dc="http://purl.org/dc/elements/1.1/"
   xmlns:cc="http://creativecommons.org/ns#"
   xmlns:rdf="http://www.w3.org/1999/02/22-rdf-syntax-ns#"
   xmlns:svg="http://www.w3.org/2000/svg"
   xmlns="http://www.w3.org/2000/svg"
   xmlns:sodipodi="http://sodipodi.sourceforge.net/DTD/sodipodi-0.dtd"
   xmlns:inkscape="http://www.inkscape.org/namespaces/inkscape"
   width="64.699089mm"
   height="64.699089mm"
   viewBox="0 0 229.24874 229.24874"
   id="svg5201"
   version="1.1"
   inkscape:version="0.91 r13725"
   sodipodi:docname="sun.svg">
  <defs
     id="defs5203" />
  <sodipodi:namedview
     id="base"
     pagecolor="#ffffff"
     bordercolor="#666666"
     borderopacity="1.0"
     inkscape:pageopacity="0.0"
     inkscape:pageshadow="2"
     inkscape:zoom="0.35"
     inkscape:cx="-25.763733"
     inkscape:cy="336.42147"
     inkscape:document-units="px"
     inkscape:current-layer="layer1"
     showgrid="false"
     fit-margin-top="0"
     fit-margin-left="0"
     fit-margin-right="0"
     fit-margin-bottom="0"
     inkscape:window-width="1440"
     inkscape:window-height="897"
     inkscape:window-x="-8"
     inkscape:window-y="-8"
     inkscape:window-maximized="1" />
  <metadata
     id="metadata5206">
    <rdf:RDF>
      <cc:Work
         rdf:about="">
        <dc:format>image/svg+xml</dc:format>
        <dc:type
           rdf:resource="http://purl.org/dc/dcmitype/StillImage" />
        <dc:title></dc:title>
      </cc:Work>
    </rdf:RDF>
  </metadata>
  <g
     inkscape:label="Taso 1"
     inkscape:groupmode="layer"
     id="layer1"
     transform="translate(100.66484,-639.53492)">
    <g
       id="g38"
       transform="matrix(1.25,0,0,-1.25,128.58391,754.15867)">
      <path
         d="m 0,0 -15.213,15.213 8.233,19.878 -19.878,8.234 0,21.516 -21.515,0 -8.234,19.879 -19.879,-8.234 -15.212,15.213 -15.216,-15.213 -19.878,8.233 -8.234,-19.878 -21.515,0 0,-21.516 -19.878,-8.234 8.233,-19.878 -15.213,-15.214 15.213,-15.214 -8.233,-19.877 19.878,-8.235 0,-21.516 21.515,0 8.234,-19.878 19.878,8.234 15.216,-15.213 15.212,15.213 19.879,-8.234 8.233,19.878 21.516,0 0,21.518 19.879,8.233 -8.234,19.879 L 0,0 Z"
         style="fill:#ffe200;fill-opacity:1;fill-rule:nonzero;stroke:none"
         id="path40"
         inkscape:connector-curvature="0" />
    </g>
    <g
       id="g42"
       transform="matrix(1.25,0,0,-1.25,89.442039,754.15867)">
      <path
         d="m 0,0 c 0,-33.35 -27.036,-60.386 -60.385,-60.386 -33.351,0 -60.387,27.036 -60.387,60.386 0,33.35 27.036,60.385 60.387,60.385 C -27.036,60.385 0,33.35 0,0"
         style="fill:#ffcb03;fill-opacity:1;fill-rule:nonzero;stroke:none"
         id="path44"
         inkscape:connector-curvature="0" />
    </g>
  </g>
</svg>
