<?xml version="1.0" encoding="UTF-8" standalone="no"?>
<!-- Created with Inkscape (http://www.inkscape.org/) -->

<svg
   xmlns:dc="http://purl.org/dc/elements/1.1/"
   xmlns:cc="http://creativecommons.org/ns#"
   xmlns:rdf="http://www.w3.org/1999/02/22-rdf-syntax-ns#"
   xmlns:svg="http://www.w3.org/2000/svg"
   xmlns="http://www.w3.org/2000/svg"
   xmlns:sodipodi="http://sodipodi.sourceforge.net/DTD/sodipodi-0.dtd"
   xmlns:inkscape="http://www.inkscape.org/namespaces/inkscape"
   width="93.720619mm"
   height="78.423882mm"
   viewBox="0 0 332.08093 277.87989"
   id="svg5201"
   version="1.1"
   inkscape:version="0.91 r13725"
   sodipodi:docname="water.svg">
  <defs
     id="defs5203" />
  <sodipodi:namedview
     id="base"
     pagecolor="#ffffff"
     bordercolor="#666666"
     borderopacity="1.0"
     inkscape:pageopacity="0.0"
     inkscape:pageshadow="2"
     inkscape:zoom="0.35"
     inkscape:cx="-626.10239"
     inkscape:cy="-69.631476"
     inkscape:document-units="px"
     inkscape:current-layer="layer1"
     showgrid="false"
     fit-margin-top="0"
     fit-margin-left="0"
     fit-margin-right="0"
     fit-margin-bottom="0"
     inkscape:window-width="1440"
     inkscape:window-height="897"
     inkscape:window-x="-8"
     inkscape:window-y="-8"
     inkscape:window-maximized="1" />
  <metadata
     id="metadata5206">
    <rdf:RDF>
      <cc:Work
         rdf:about="">
        <dc:format>image/svg+xml</dc:format>
        <dc:type
           rdf:resource="http://purl.org/dc/dcmitype/StillImage" />
        <dc:title></dc:title>
      </cc:Work>
    </rdf:RDF>
  </metadata>
  <g
     inkscape:label="Taso 1"
     inkscape:groupmode="layer"
     id="layer1"
     transform="translate(-499.67382,-184.85083)">
    <g
       id="g846"
       transform="matrix(1.25,0,0,-1.25,681.66571,283.0238)">
      <path
         d="m 0,0 20.843,-42.212 -89.242,-0.069 -4.156,15.507 L 0,0 Z"
         style="fill:#bcbec0;fill-opacity:1;fill-rule:nonzero;stroke:none"
         id="path848"
         inkscape:connector-curvature="0" />
    </g>
    <g
       id="g850"
       transform="matrix(1.25,0,0,-1.25,586.22084,317.78342)">
      <path
         d="M 0,0 4.152,-15.493 7.957,-14.474 3.805,1.02 0,0 Z"
         style="fill:#d1d3d4;fill-opacity:1;fill-rule:nonzero;stroke:none"
         id="path852"
         inkscape:connector-curvature="0" />
    </g>
    <g
       id="g854"
       transform="matrix(1.25,0,0,-1.25,562.65884,302.09791)">
      <path
         d="m 0,0 12.95,-48.332 3.804,1.019 L 3.805,1.019 0,0 Z"
         style="fill:#d1d3d4;fill-opacity:1;fill-rule:nonzero;stroke:none"
         id="path856"
         inkscape:connector-curvature="0" />
    </g>
    <g
       id="g858"
       transform="matrix(1.25,0,0,-1.25,586.22084,317.78342)">
      <path
         d="M 0,0 4.152,-15.493 -2.095,-34.766 -15.045,13.567 0,0 Z"
         style="fill:#bcbec0;fill-opacity:1;fill-rule:nonzero;stroke:none"
         id="path860"
         inkscape:connector-curvature="0" />
    </g>
    <g
       id="g862"
       transform="matrix(1.25,0,0,-1.25,562.65884,302.09791)">
      <path
         d="m 0,0 12.95,-48.332 c 0,0 -4.789,8.129 -8.911,23.513 C -0.083,-9.437 0,0 0,0"
         style="fill:#bcbec0;fill-opacity:1;fill-rule:nonzero;stroke:none"
         id="path864"
         inkscape:connector-curvature="0" />
    </g>
    <g
       id="g866"
       transform="matrix(1.25,0,0,-1.25,794.72171,262.79192)">
      <path
         d="m 0,0 -14.86,-14.86 -8.307,8.307 14.86,14.86 c 4.147,4.147 4.147,10.894 0,15.042 l -24.154,24.152 c -4.146,4.147 -10.894,4.147 -15.041,0 l -14.861,-14.86 -8.306,8.306 14.861,14.861 c 8.726,8.727 22.928,8.726 31.654,0 L -0.001,31.655 C 8.727,22.927 8.727,8.727 0,0"
         style="fill:#bcbec0;fill-opacity:1;fill-rule:nonzero;stroke:none"
         id="path868"
         inkscape:connector-curvature="0" />
    </g>
    <g
       id="g870"
       transform="matrix(1.25,0,0,-1.25,812.97559,295.21379)">
      <path
         d="m 0,0 -85.78,77.316 c -2.133,1.922 -5.539,1.834 -7.57,-0.197 L -148.258,22.21 c -2.032,-2.031 -2.119,-5.437 -0.198,-7.57 L -71.139,-71.14 0,0 Z"
         style="fill:#d1d3d4;fill-opacity:1;fill-rule:nonzero;stroke:none"
         id="path872"
         inkscape:connector-curvature="0" />
    </g>
    <g
       id="g874"
       transform="matrix(1.25,0,0,-1.25,738.71959,399.77741)">
      <path
         d="m 0,0 c -3.348,-3.348 -8.775,-3.348 -12.123,0 -3.348,3.348 -3.348,8.775 0,12.123 L 59.795,84.04 c 3.347,3.347 8.773,3.347 12.122,0 3.348,-3.348 3.348,-8.776 0.001,-12.123 L 0,0 Z"
         style="fill:#bcbec0;fill-opacity:1;fill-rule:nonzero;stroke:none"
         id="path876"
         inkscape:connector-curvature="0" />
    </g>
    <g
       id="g878"
       transform="matrix(1.25,0,0,-1.25,553.38871,450.02091)">
      <path
         d="m 0,0 c -1.197,-4.466 1.562,-8.652 6.028,-9.849 4.465,-1.197 8.949,1.049 10.144,5.515 C 18.179,3.151 11.77,11.581 11.77,11.581 11.77,11.581 2.005,7.486 0,0 m 54.461,11.581 c 0,0 -9.764,-4.095 -11.77,-11.581 -1.196,-4.466 1.563,-8.652 6.029,-9.849 4.465,-1.197 8.948,1.049 10.144,5.515 2.007,7.485 -4.403,15.915 -4.403,15.915 M -42.692,0 c -1.197,-4.466 1.563,-8.653 6.029,-9.849 4.464,-1.197 8.947,1.049 10.144,5.515 2.006,7.485 -4.402,15.915 -4.402,15.915 0,0 -9.766,-4.095 -11.771,-11.581"
         style="fill:#b3e2ec;fill-opacity:1;fill-rule:nonzero;stroke:none"
         id="path880"
         inkscape:connector-curvature="0" />
    </g>
    <g
       id="g882"
       transform="matrix(1.25,0,0,-1.25,594.78347,384.06629)">
      <path
         d="m 0,0 c 0,0 -9.765,-4.096 -11.77,-11.581 -1.197,-4.467 1.562,-8.653 6.028,-9.85 4.465,-1.196 8.949,1.05 10.144,5.515 C 6.409,-8.43 0,0 0,0 m -54.462,-11.581 c -1.197,-4.467 1.563,-8.653 6.029,-9.85 4.464,-1.196 8.947,1.05 10.144,5.515 C -36.283,-8.43 -42.691,0 -42.691,0 c 0,0 -9.766,-4.096 -11.771,-11.581"
         style="fill:#b3e2ec;fill-opacity:1;fill-rule:nonzero;stroke:none"
         id="path884"
         inkscape:connector-curvature="0" />
    </g>
  </g>
</svg>
